<svg id="Livello_1" data-name="Livello 1" xmlns="http://www.w3.org/2000/svg" viewBox="0 0 289.34 122.1"><defs><style>.cls-1{fill:#fff;}</style></defs><title>vibrostop-logo</title><path class="cls-1" d="M90.06,91.21H86.53V59.55h3.53Z" transform="translate(-1.33 -0.95)"/><path class="cls-1" d="M96.48,59.55h5.21c5.75,0,10.58,2.1,10.58,8.56a7,7,0,0,1-3.11,6.18,8,8,0,0,1,6,8.1c0,6.3-5.08,8.82-11.34,8.82H96.48ZM100,73.49h1.34c4,0,7.39-.46,7.39-5.38s-3-5.29-7.35-5.29H100Zm0,14.44h3.53c3.94,0,8.1-1,8.1-5.79s-4.7-5.63-8.57-5.63H100Z" transform="translate(-1.33 -0.95)"/><path class="cls-1" d="M123.86,91.21h-3.53V59.55h4.58c6,0,11.59,1.59,11.59,8.73,0,4.87-3.06,8.32-7.94,8.74l10.08,14.19h-4.32l-9.58-13.9h-.88Zm0-17H125c4,0,8-.75,8-5.67,0-5.2-3.82-5.71-8.06-5.71h-1Z" transform="translate(-1.33 -0.95)"/><path class="cls-1" d="M174.5,75.42A16.5,16.5,0,1,1,158,59,16.42,16.42,0,0,1,174.5,75.42Zm-29.47,0a13,13,0,1,0,13-13.1A13.09,13.09,0,0,0,145,75.38Z" transform="translate(-1.33 -0.95)"/><path class="cls-1" d="M193.65,65.72c-1.25-2.18-2.77-3.44-5.45-3.44A5,5,0,0,0,183,67.19c0,2.73,2.81,4,5,5l2.1.92c4.12,1.8,7.6,3.86,7.6,8.9a10,10,0,0,1-19.82,1.6l3.45-1a6.52,6.52,0,0,0,6.34,5.88,6.36,6.36,0,0,0,6.5-6.17c0-3.7-2.89-5-5.83-6.3l-1.93-.84c-3.7-1.68-6.89-3.57-6.89-8.11,0-4.91,4.16-8.06,8.86-8.06a9.09,9.09,0,0,1,8.19,4.92Z" transform="translate(-1.33 -0.95)"/><path class="cls-1" d="M211.17,91.21h-3.53V62.82H200V59.55h18.89v3.27h-7.72Z" transform="translate(-1.33 -0.95)"/><path class="cls-1" d="M253.91,75.42A16.5,16.5,0,1,1,237.41,59,16.42,16.42,0,0,1,253.91,75.42Zm-29.47,0a13,13,0,1,0,13-13.1A13.09,13.09,0,0,0,224.44,75.38Z" transform="translate(-1.33 -0.95)"/><path class="cls-1" d="M262.23,91.21H258.7V59.55h5.21c2.73,0,5.54.08,7.85,1.68a8.7,8.7,0,0,1,3.57,7.22,8.88,8.88,0,0,1-3,6.8c-2.14,1.77-4.87,2.1-7.52,2.1h-2.56Zm0-17.13h2.35c3.91,0,7.23-1.18,7.23-5.71,0-5.17-4.16-5.55-8.28-5.55h-1.3Z" transform="translate(-1.33 -0.95)"/><path class="cls-1" d="M281.1,49.53a4.79,4.79,0,1,1,4.79,4.76A4.75,4.75,0,0,1,281.1,49.53Zm8.84,0a4.06,4.06,0,1,0-4.05,4A4.06,4.06,0,0,0,289.94,49.53Zm-1.78,2.58h-.88l-1.56-2.4h-.88v2.4h-.74V46.9h2.27c.94,0,1.86.25,1.86,1.38s-.72,1.4-1.65,1.43ZM285.72,49c.64,0,1.78.13,1.78-.7,0-.54-.71-.64-1.27-.64h-1.39V49Z" transform="translate(-1.33 -0.95)"/><polygon class="cls-1" points="0 47.08 0 50.93 41.27 50.93 47.45 19.21 64.79 122.1 78.36 51.05 274.82 51.05 274.82 46.95 74.94 46.95 64.91 100.17 47.37 0 38.77 47.04 0 47.08"/></svg>